<?xml version="1.0" encoding="UTF-8" standalone="no"?><svg xmlns="http://www.w3.org/2000/svg" xmlns:xlink="http://www.w3.org/1999/xlink" contentScriptType="application/ecmascript" contentStyleType="text/css" height="349px" preserveAspectRatio="none" style="width:498px;height:349px;" version="1.1" viewBox="0 0 498 349" width="498px" zoomAndPan="magnify"><defs><filter height="300%" id="fi0afrs2vlh54" width="300%" x="-1" y="-1"><feGaussianBlur result="blurOut" stdDeviation="2.0"/><feColorMatrix in="blurOut" result="blurOut2" type="matrix" values="0 0 0 0 0 0 0 0 0 0 0 0 0 0 0 0 0 0 .4 0"/><feOffset dx="4.0" dy="4.0" in="blurOut2" result="blurOut3"/><feBlend in="SourceGraphic" in2="blurOut3" mode="normal"/></filter></defs><g><text fill="#000000" font-family="sans-serif" font-size="18" lengthAdjust="spacingAndGlyphs" textLength="207" x="149" y="16.708">Classes - Class Diagram</text><!--class BaseModel--><rect fill="#FEFECE" filter="url(#fi0afrs2vlh54)" height="99.2188" id="BaseModel" style="stroke: #A80036; stroke-width: 1.5;" width="121" x="224" y="28.9531"/><ellipse cx="248.45" cy="44.9531" fill="#ADD1B2" rx="11" ry="11" style="stroke: #A80036; stroke-width: 1.0;"/><path d="M250.7938,40.625 L250.9656,40.7031 C251.1844,40.3906 251.3875,40.2969 251.6844,40.2969 C251.9813,40.2969 252.2625,40.4375 252.4188,40.7031 C252.5125,40.8594 252.5281,40.9844 252.5281,41.4219 L252.5281,42.8438 C252.5281,43.2656 252.4969,43.4531 252.3875,43.6094 C252.2156,43.8281 251.95,43.9688 251.6844,43.9688 C251.4656,43.9688 251.2313,43.8594 251.0906,43.7188 C250.95,43.5938 250.9188,43.4688 250.8563,43.0625 C250.7625,42.6563 250.5906,42.4375 250.1063,42.1563 C249.6375,41.9063 249.0281,41.75 248.45,41.75 C246.7156,41.75 245.4656,43.0625 245.4656,44.8438 L245.4656,45.9375 C245.4656,47.6406 246.7625,48.7344 248.8094,48.7344 C249.575,48.7344 250.2625,48.6094 250.6844,48.3438 C250.8719,48.25 250.8719,48.25 251.325,47.7656 C251.5125,47.5781 251.7156,47.5 251.9344,47.5 C252.4031,47.5 252.7938,47.8906 252.7938,48.3438 C252.7938,48.7344 252.4656,49.1875 251.8875,49.5938 C251.1375,50.1406 249.9813,50.4375 248.7625,50.4375 C245.8719,50.4375 243.7625,48.5469 243.7625,45.9688 L243.7625,44.8438 C243.7625,42.125 245.7625,40.0469 248.3875,40.0469 C249.2625,40.0469 249.8563,40.1875 250.7938,40.625 Z "/><text fill="#000000" font-family="sans-serif" font-size="12" lengthAdjust="spacingAndGlyphs" textLength="68" x="264.55" y="49.1074">BaseModel</text><line style="stroke: #A80036; stroke-width: 1.5;" x1="225" x2="344" y1="60.9531" y2="60.9531"/><rect fill="none" height="6" style="stroke: #C82930; stroke-width: 1.0;" width="6" x="232" y="69.8555"/><text fill="#000000" font-family="sans-serif" font-size="11" lengthAdjust="spacingAndGlyphs" textLength="36" x="244" y="75.1636">id : int</text><rect fill="none" height="6" style="stroke: #C82930; stroke-width: 1.0;" width="6" x="232" y="82.6602"/><text fill="#000000" font-family="sans-serif" font-size="11" lengthAdjust="spacingAndGlyphs" textLength="57" x="244" y="87.9683">lastId : int</text><line style="stroke: #A80036; stroke-width: 1.5;" x1="225" x2="344" y1="94.5625" y2="94.5625"/><ellipse cx="235" cy="106.4648" fill="#84BE84" rx="3" ry="3" style="stroke: #038048; stroke-width: 1.0;"/><text fill="#000000" font-family="sans-serif" font-size="11" lengthAdjust="spacingAndGlyphs" textLength="70" x="244" y="108.7729">BaseModel()</text><rect fill="#F24D5C" height="6" style="stroke: #C82930; stroke-width: 1.0;" width="6" x="232" y="116.2695"/><text fill="#000000" font-family="sans-serif" font-size="11" lengthAdjust="spacingAndGlyphs" textLength="95" x="244" y="121.5776">generateId() : int</text><!--class Reservation--><rect fill="#FEFECE" filter="url(#fi0afrs2vlh54)" height="99.2188" id="Reservation" style="stroke: #A80036; stroke-width: 1.5;" width="147" x="340" y="213.4531"/><ellipse cx="373.45" cy="229.4531" fill="#ADD1B2" rx="11" ry="11" style="stroke: #A80036; stroke-width: 1.0;"/><path d="M375.7938,225.125 L375.9656,225.2031 C376.1844,224.8906 376.3875,224.7969 376.6844,224.7969 C376.9813,224.7969 377.2625,224.9375 377.4188,225.2031 C377.5125,225.3594 377.5281,225.4844 377.5281,225.9219 L377.5281,227.3438 C377.5281,227.7656 377.4969,227.9531 377.3875,228.1094 C377.2156,228.3281 376.95,228.4688 376.6844,228.4688 C376.4656,228.4688 376.2313,228.3594 376.0906,228.2188 C375.95,228.0938 375.9188,227.9688 375.8563,227.5625 C375.7625,227.1563 375.5906,226.9375 375.1063,226.6563 C374.6375,226.4063 374.0281,226.25 373.45,226.25 C371.7156,226.25 370.4656,227.5625 370.4656,229.3438 L370.4656,230.4375 C370.4656,232.1406 371.7625,233.2344 373.8094,233.2344 C374.575,233.2344 375.2625,233.1094 375.6844,232.8438 C375.8719,232.75 375.8719,232.75 376.325,232.2656 C376.5125,232.0781 376.7156,232 376.9344,232 C377.4031,232 377.7938,232.3906 377.7938,232.8438 C377.7938,233.2344 377.4656,233.6875 376.8875,234.0938 C376.1375,234.6406 374.9813,234.9375 373.7625,234.9375 C370.8719,234.9375 368.7625,233.0469 368.7625,230.4688 L368.7625,229.3438 C368.7625,226.625 370.7625,224.5469 373.3875,224.5469 C374.2625,224.5469 374.8563,224.6875 375.7938,225.125 Z "/><text fill="#000000" font-family="sans-serif" font-size="12" lengthAdjust="spacingAndGlyphs" textLength="74" x="391.55" y="233.6074">Reservation</text><line style="stroke: #A80036; stroke-width: 1.5;" x1="341" x2="486" y1="245.4531" y2="245.4531"/><rect fill="none" height="6" style="stroke: #C82930; stroke-width: 1.0;" width="6" x="348" y="254.3555"/><text fill="#000000" font-family="sans-serif" font-size="11" lengthAdjust="spacingAndGlyphs" textLength="65" x="360" y="259.6636">user : User</text><rect fill="none" height="6" style="stroke: #C82930; stroke-width: 1.0;" width="6" x="348" y="267.1602"/><text fill="#000000" font-family="sans-serif" font-size="11" lengthAdjust="spacingAndGlyphs" textLength="116" x="360" y="272.4683">dateStart : Calendar</text><rect fill="none" height="6" style="stroke: #C82930; stroke-width: 1.0;" width="6" x="348" y="279.9648"/><text fill="#000000" font-family="sans-serif" font-size="11" lengthAdjust="spacingAndGlyphs" textLength="109" x="360" y="285.2729">dateEnd : Calendar</text><rect fill="none" height="6" style="stroke: #C82930; stroke-width: 1.0;" width="6" x="348" y="292.7695"/><text fill="#000000" font-family="sans-serif" font-size="11" lengthAdjust="spacingAndGlyphs" textLength="121" x="360" y="298.0776">numberOfPeople : int</text><line style="stroke: #A80036; stroke-width: 1.5;" x1="341" x2="486" y1="304.6719" y2="304.6719"/><!--class User--><rect fill="#FEFECE" filter="url(#fi0afrs2vlh54)" height="150.4375" id="User" style="stroke: #A80036; stroke-width: 1.5;" width="299" x="6" y="187.9531"/><ellipse cx="136.75" cy="203.9531" fill="#ADD1B2" rx="11" ry="11" style="stroke: #A80036; stroke-width: 1.0;"/><path d="M139.0938,199.625 L139.2656,199.7031 C139.4844,199.3906 139.6875,199.2969 139.9844,199.2969 C140.2813,199.2969 140.5625,199.4375 140.7188,199.7031 C140.8125,199.8594 140.8281,199.9844 140.8281,200.4219 L140.8281,201.8438 C140.8281,202.2656 140.7969,202.4531 140.6875,202.6094 C140.5156,202.8281 140.25,202.9688 139.9844,202.9688 C139.7656,202.9688 139.5313,202.8594 139.3906,202.7188 C139.25,202.5938 139.2188,202.4688 139.1563,202.0625 C139.0625,201.6563 138.8906,201.4375 138.4063,201.1563 C137.9375,200.9063 137.3281,200.75 136.75,200.75 C135.0156,200.75 133.7656,202.0625 133.7656,203.8438 L133.7656,204.9375 C133.7656,206.6406 135.0625,207.7344 137.1094,207.7344 C137.875,207.7344 138.5625,207.6094 138.9844,207.3438 C139.1719,207.25 139.1719,207.25 139.625,206.7656 C139.8125,206.5781 140.0156,206.5 140.2344,206.5 C140.7031,206.5 141.0938,206.8906 141.0938,207.3438 C141.0938,207.7344 140.7656,208.1875 140.1875,208.5938 C139.4375,209.1406 138.2813,209.4375 137.0625,209.4375 C134.1719,209.4375 132.0625,207.5469 132.0625,204.9688 L132.0625,203.8438 C132.0625,201.125 134.0625,199.0469 136.6875,199.0469 C137.5625,199.0469 138.1563,199.1875 139.0938,199.625 Z "/><text fill="#000000" font-family="sans-serif" font-size="12" lengthAdjust="spacingAndGlyphs" textLength="29" x="157.25" y="208.1074">User</text><line style="stroke: #A80036; stroke-width: 1.5;" x1="7" x2="304" y1="219.9531" y2="219.9531"/><rect fill="none" height="6" style="stroke: #C82930; stroke-width: 1.0;" width="6" x="14" y="228.8555"/><text fill="#000000" font-family="sans-serif" font-size="11" lengthAdjust="spacingAndGlyphs" textLength="102" x="26" y="234.1636">firstName : String</text><rect fill="none" height="6" style="stroke: #C82930; stroke-width: 1.0;" width="6" x="14" y="241.6602"/><text fill="#000000" font-family="sans-serif" font-size="11" lengthAdjust="spacingAndGlyphs" textLength="100" x="26" y="246.9683">lastName : String</text><rect fill="none" height="6" style="stroke: #C82930; stroke-width: 1.0;" width="6" x="14" y="254.4648"/><text fill="#000000" font-family="sans-serif" font-size="11" lengthAdjust="spacingAndGlyphs" textLength="238" x="26" y="259.7729">reservationList : LinkedList&lt;Reservation&gt;</text><line style="stroke: #A80036; stroke-width: 1.5;" x1="7" x2="304" y1="266.3672" y2="266.3672"/><ellipse cx="17" cy="278.2695" fill="#84BE84" rx="3" ry="3" style="stroke: #038048; stroke-width: 1.0;"/><text fill="#000000" font-family="sans-serif" font-size="11" lengthAdjust="spacingAndGlyphs" textLength="245" x="26" y="280.5776">User(firstName : String, lastName : String)</text><ellipse cx="17" cy="291.0742" fill="#84BE84" rx="3" ry="3" style="stroke: #038048; stroke-width: 1.0;"/><text fill="#000000" font-family="sans-serif" font-size="11" lengthAdjust="spacingAndGlyphs" textLength="242" x="26" y="293.3823">newReservation(reservation : Reservation)</text><ellipse cx="17" cy="303.8789" fill="#84BE84" rx="3" ry="3" style="stroke: #038048; stroke-width: 1.0;"/><text fill="#000000" font-family="sans-serif" font-size="11" lengthAdjust="spacingAndGlyphs" textLength="255" x="26" y="306.187">cancelReservation(reservation : Reservation)</text><ellipse cx="17" cy="316.6836" fill="#84BE84" rx="3" ry="3" style="stroke: #038048; stroke-width: 1.0;"/><text fill="#000000" font-family="sans-serif" font-size="11" lengthAdjust="spacingAndGlyphs" textLength="273" x="26" y="318.9917">getUpcomingReservations() : List&lt;Reservation&gt;</text><ellipse cx="17" cy="329.4883" fill="#84BE84" rx="3" ry="3" style="stroke: #038048; stroke-width: 1.0;"/><text fill="#000000" font-family="sans-serif" font-size="11" lengthAdjust="spacingAndGlyphs" textLength="197" x="26" y="331.7964">getNextReservation() : Reservation</text><!--link BaseModel to Reservation--><path d="M330.616,144.6941 C346.584,167.2851 364.193,192.1981 379.059,213.2281 " fill="none" id="BaseModel-Reservation" style="stroke: #A80036; stroke-width: 1.0;"/><polygon fill="none" points="324.898,148.7321,319.07,128.3601,336.33,140.6511,324.898,148.7321" style="stroke: #A80036; stroke-width: 1.0;"/><!--link BaseModel to User--><path d="M238.288,144.8311 C228.434,158.7721 217.959,173.5911 207.892,187.8321 " fill="none" id="BaseModel-User" style="stroke: #A80036; stroke-width: 1.0;"/><polygon fill="none" points="232.67,140.6511,249.93,128.3601,244.102,148.7321,232.67,140.6511" style="stroke: #A80036; stroke-width: 1.0;"/><!--link User to Reservation--><path d="M305.16,262.9531 C316.728,262.9531 328.295,262.9531 339.863,262.9531 " fill="none" id="User-Reservation" style="stroke: #A80036; stroke-width: 1.0;"/><!--
@startuml
title Classes - Class Diagram


class BaseModel {
    - id : int
    - lastId : int
    + BaseModel()
    - generateId() : int
}

class Reservation {
    - user : User
    - dateStart : Calendar
    - dateEnd : Calendar
    - numberOfPeople : int
    
}

BaseModel <|- - Reservation

class User {
    - firstName : String
    - lastName : String
    - reservationList : LinkedList<Reservation>
    + User(firstName : String, lastName : String)
    + newReservation(reservation : Reservation)
    + cancelReservation(reservation : Reservation)
    + getUpcomingReservations() : List<Reservation>
    + getNextReservation() : Reservation
}

BaseModel <|- - User
Reservation -left- User
@enduml

PlantUML version 1.2018.02beta8(Unknown compile time)
(GPL source distribution)
Java Runtime: Java(TM) SE Runtime Environment
JVM: Java HotSpot(TM) 64-Bit Server VM
Java Version: 1.7.0_25-b15
Operating System: Linux
Default Encoding: UTF-8
Language: en
Country: US
--></g></svg>